<svg width="128" height="115" viewBox="0 0 128 115" fill="none" xmlns="http://www.w3.org/2000/svg">
<rect width="128" height="115" fill="#F5F5F5"/>
<rect x="-328" y="-373" width="1440" height="1477" fill="white"/>
<rect x="-328" y="-373" width="1440" height="1477" stroke="black"/>
<path d="M-199 -24C-199 -32.2843 -192.284 -39 -184 -39H142.932C151.216 -39 157.932 -32.2843 157.932 -24V474C157.932 482.284 151.216 489 142.932 489H-184C-192.284 489 -199 482.284 -199 474V-24Z" fill="#D9D3C5" fill-opacity="0.4"/>
<line y1="-1" x2="23.8618" y2="-1" transform="matrix(-0.999989 0.00461582 -0.0038182 -0.999993 25.8613 90.5464)" stroke="black" stroke-width="2"/>
<line y1="-1" x2="24.0497" y2="-1" transform="matrix(0.0038182 0.999993 -0.999989 0.00461582 25.8613 90.5464)" stroke="black" stroke-width="2"/>
<line y1="-1" x2="23.8618" y2="-1" transform="matrix(-0.999989 0.00461582 -0.0038182 -0.999993 25.8613 90.5464)" stroke="black" stroke-width="2"/>
<line y1="-1" x2="24.0497" y2="-1" transform="matrix(0.0038182 0.999993 -0.999989 0.00461582 25.8613 90.5464)" stroke="black" stroke-width="2"/>
<line x1="101.424" y1="25.0498" x2="125.286" y2="25.0498" stroke="black" stroke-width="2"/>
<line x1="100.424" y1="26.0498" x2="100.424" y2="2.00011" stroke="black" stroke-width="2"/>
<line x1="101.424" y1="25.0498" x2="125.286" y2="25.0498" stroke="black" stroke-width="2"/>
<line x1="100.424" y1="26.0498" x2="100.424" y2="2.00011" stroke="black" stroke-width="2"/>
<line x1="1" y1="90.5464" x2="1" y2="1.9998" stroke="black" stroke-width="2"/>
<line x1="2" y1="1" x2="101.424" y2="1" stroke="black" stroke-width="2"/>
<line x1="25.8613" y1="113.596" x2="125.285" y2="113.596" stroke="black" stroke-width="2"/>
<line x1="126.285" y1="26.0498" x2="126.285" y2="114.596" stroke="black" stroke-width="2"/>
</svg>
