<svg width="125" height="115" viewBox="0 0 125 115" fill="none" xmlns="http://www.w3.org/2000/svg">
<rect width="125" height="115" fill="#F5F5F5"/>
<rect x="-149" y="-523" width="1440" height="1477" fill="white"/>
<rect x="-149" y="-523" width="1440" height="1477" stroke="black"/>
<path d="M-20 -174C-20 -182.284 -13.2843 -189 -5 -189H321.932C330.216 -189 336.932 -182.284 336.932 -174V324C336.932 332.284 330.216 339 321.932 339H-5C-13.2843 339 -20 332.284 -20 324V-174Z" fill="#D9D3C5" fill-opacity="0.4"/>
<line x1="1" y1="1.54639" x2="1" y2="114.143" stroke="black" stroke-width="2"/>
<line y1="113.143" x2="122.291" y2="113.143" stroke="black" stroke-width="2"/>
<path d="M0 1H90.4757" stroke="black" stroke-width="2"/>
<line x1="89.4873" y1="1.54639" x2="89.4873" y2="49.6458" stroke="black" stroke-width="2"/>
<line x1="88.4873" y1="48.646" x2="122.291" y2="48.646" stroke="black" stroke-width="2"/>
<line x1="123.291" y1="49.646" x2="123.291" y2="114.143" stroke="black" stroke-width="2"/>
</svg>
