<svg width="165" height="45" viewBox="0 0 165 45" fill="none" xmlns="http://www.w3.org/2000/svg">
<g id="Badge/App Store/45px Blue">
<rect id="Background" width="165" height="45" rx="5" fill="#DAA86D"/>
<path id="App Store" fill-rule="evenodd" clip-rule="evenodd" d="M62.9178 29.6481H57.5576L56.2703 33.5332H54L59.077 19.1595H61.4359L66.513 33.5332H64.2039L62.9178 29.6481ZM58.1127 27.8554H62.3615L60.267 21.5502H60.2084L58.1127 27.8554ZM77.4777 28.294C77.4777 31.5505 75.7725 33.6428 73.1991 33.6428C71.8689 33.714 70.616 33.0018 69.9733 31.8094H69.9246V37H67.8201V23.0536H69.8571V24.7966H69.8958C70.5672 23.6116 71.8214 22.8998 73.1604 22.944C75.7625 22.944 77.4777 25.0464 77.4777 28.294ZM75.3146 28.294C75.3146 26.1723 74.2419 24.7774 72.6052 24.7774C70.9973 24.7774 69.9157 26.2017 69.9157 28.294C69.9157 30.4055 70.9973 31.8196 72.6052 31.8196C74.2419 31.8196 75.3146 30.4349 75.3146 28.294ZM88.7621 28.294C88.7621 31.5505 87.0568 33.6428 84.4835 33.6428C83.1533 33.714 81.9004 33.0018 81.2576 31.8094H81.2089V37H79.1044V23.0536H81.1415V24.7966H81.1802C81.8515 23.6116 83.1058 22.8998 84.4447 22.944C87.0469 22.944 88.7621 25.0464 88.7621 28.294ZM86.599 28.294C86.599 26.1723 85.5263 24.7774 83.8896 24.7774C82.2817 24.7774 81.2001 26.2017 81.2001 28.294C81.2001 30.4055 82.2817 31.8196 83.8896 31.8196C85.5263 31.8196 86.599 30.4349 86.599 28.294ZM96.2202 29.5283C96.3761 30.9537 97.7308 31.8896 99.582 31.8896C101.356 31.8896 102.632 30.9537 102.632 29.6684C102.632 28.5528 101.862 27.8847 100.04 27.4269L98.2174 26.9782C95.6352 26.3406 94.4364 25.1063 94.4364 23.1033C94.4364 20.6233 96.5508 18.9198 99.5533 18.9198C102.525 18.9198 104.562 20.6233 104.63 23.1033H102.506C102.379 21.6689 101.219 20.803 99.5234 20.803C97.8281 20.803 96.668 21.679 96.668 22.9541C96.668 23.9703 97.409 24.5682 99.2215 25.026L100.771 25.4148C103.656 26.1123 104.855 27.2969 104.855 29.3994C104.855 32.0885 102.759 33.7727 99.4261 33.7727C96.3075 33.7727 94.2019 32.1281 94.0659 29.5282L96.2202 29.5283ZM109.397 20.5736V23.0536H111.346V24.7571H109.397V30.5343C109.397 31.4318 109.787 31.8501 110.644 31.8501C110.876 31.846 111.107 31.8293 111.336 31.8003V33.4936C110.951 33.5672 110.559 33.6005 110.167 33.5931C108.092 33.5931 107.282 32.7962 107.282 30.7638V24.7571H105.792V23.0536H107.282V20.5736H109.397ZM112.476 28.294C112.476 24.9967 114.375 22.9248 117.338 22.9248C120.311 22.9248 122.202 24.9967 122.202 28.294C122.202 31.6003 120.321 33.6632 117.338 33.6632C114.357 33.6632 112.476 31.6003 112.476 28.294ZM120.057 28.294C120.057 26.0321 119.043 24.6972 117.338 24.6972C115.633 24.6972 114.62 26.0423 114.62 28.294C114.62 30.5649 115.633 31.8897 117.338 31.8897C119.043 31.8897 120.057 30.5649 120.057 28.294ZM123.937 23.0536H125.944V24.8373H125.993C126.273 23.6891 127.302 22.8988 128.459 22.9439C128.701 22.9431 128.943 22.97 129.18 23.0242V25.0362C128.874 24.9406 128.554 24.8967 128.234 24.9063C127.616 24.8806 127.017 25.1326 126.595 25.5962C126.174 26.0597 125.971 26.6885 126.041 27.3173V33.5332H123.937L123.937 23.0536ZM138.883 30.4552C138.6 32.3576 136.787 33.6632 134.468 33.6632C131.486 33.6632 129.634 31.6206 129.634 28.3437C129.634 25.0566 131.495 22.9247 134.38 22.9247C137.216 22.9247 139 24.9164 139 28.0939V28.8309H131.759V28.9609C131.691 29.7411 131.955 30.5133 132.482 31.0813C133.01 31.6492 133.751 31.958 134.517 31.9292C135.538 32.027 136.501 31.4276 136.884 30.4552L138.883 30.4552ZM131.769 27.3275L136.894 27.3275C136.933 26.6264 136.683 25.9409 136.206 25.436C135.728 24.9311 135.066 24.6527 134.38 24.6678C133.687 24.6635 133.022 24.9421 132.532 25.4416C132.042 25.941 131.767 26.62 131.769 27.3275ZM57.849 8.3403C58.7424 8.27477 59.6175 8.62221 60.2333 9.28698C60.8492 9.95176 61.141 10.8638 61.0284 11.7721C61.0284 13.9785 59.8617 15.2469 57.849 15.2469H55.4083V8.3403H57.849ZM56.4578 14.2701H57.7317C58.3702 14.3091 58.9919 14.052 59.4242 13.5701C59.8565 13.0883 60.0533 12.433 59.9601 11.7862C60.0465 11.142 59.8468 10.4921 59.4156 10.0142C58.9844 9.53625 58.3668 9.28028 57.7317 9.31631H56.4578V14.2701ZM62.2139 12.6385C62.1264 11.7042 62.5647 10.8001 63.3448 10.3053C64.125 9.81041 65.1122 9.81041 65.8923 10.3053C66.6725 10.8001 67.1108 11.7042 67.0233 12.6385C67.1124 13.5737 66.6745 14.4796 65.8937 14.9755C65.1128 15.4714 64.1243 15.4714 63.3435 14.9755C62.5626 14.4796 62.1248 13.5737 62.2139 12.6385ZM65.9882 12.6385C65.9882 11.5087 65.4917 10.848 64.6202 10.848C63.7455 10.848 63.2534 11.5087 63.2534 12.6385C63.2534 13.7773 63.7455 14.4329 64.6202 14.4329C65.4917 14.4329 65.9882 13.7728 65.9882 12.6385ZM73.4164 15.2468H72.3725L71.3186 11.408H71.2389L70.1895 15.2468H69.1555L67.7499 10.0347H68.7706L69.6841 14.0118H69.7593L70.8076 10.0347H71.7731L72.8214 14.0118H72.9011L73.8101 10.0347H74.8164L73.4164 15.2468ZM75.9986 10.0347H76.9674V10.8626H77.0426C77.3041 10.253 77.9152 9.88012 78.5643 9.93405C79.0668 9.89543 79.5593 10.0925 79.9027 10.4696C80.2461 10.8467 80.403 11.363 80.3292 11.8726V15.2467H79.3229V12.1309C79.3229 11.2933 78.9668 10.8768 78.2225 10.8768C77.8816 10.8606 77.5508 10.9973 77.3168 11.2512C77.0828 11.5051 76.9689 11.8507 77.005 12.1976V15.2468H75.9986L75.9986 10.0347ZM81.9328 8H82.9391V15.2467H81.9328V8ZM84.338 12.6385C84.2507 11.7042 84.689 10.8 85.4692 10.3052C86.2494 9.81031 87.2367 9.81031 88.0169 10.3052C88.7971 10.8 89.2354 11.7042 89.1481 12.6385C89.2371 13.5737 88.7991 14.4796 88.0182 14.9755C87.2373 15.4714 86.2488 15.4714 85.4679 14.9755C84.687 14.4796 84.2491 13.5737 84.338 12.6385ZM88.1124 12.6385C88.1124 11.5087 87.6159 10.848 86.7444 10.848C85.8697 10.848 85.3776 11.5087 85.3776 12.6385C85.3776 13.7773 85.8697 14.4329 86.7444 14.4329C87.6159 14.4329 88.1124 13.7728 88.1124 12.6385ZM90.2075 13.7728C90.2075 12.8346 90.8909 12.2937 92.1041 12.2168L93.4853 12.1354V11.6856C93.4853 11.1351 93.1292 10.8242 92.4414 10.8242C91.8796 10.8242 91.4903 11.035 91.3786 11.4035H90.4043C90.5072 10.5083 91.3311 9.93407 92.4878 9.93407C93.7662 9.93407 94.4873 10.5846 94.4873 11.6856V15.2468H93.5185V14.5143H93.4389C93.1098 15.0492 92.5247 15.3618 91.9072 15.3326C91.4743 15.3787 91.0426 15.2354 90.7188 14.9382C90.3949 14.641 90.2092 14.2176 90.2075 13.7728ZM93.4853 13.3274V12.8917L92.2401 12.973C91.5379 13.0211 91.2194 13.2652 91.2194 13.7247C91.2194 14.1938 91.6175 14.4668 92.1649 14.4668C92.489 14.5003 92.8125 14.398 93.0614 14.1832C93.3103 13.9684 93.4633 13.6596 93.4853 13.3274ZM95.8099 12.6385C95.8099 10.9915 96.6382 9.9482 97.9265 9.9482C98.5771 9.91756 99.1864 10.2739 99.4902 10.8626H99.5654V8H100.572V15.2467H99.6075V14.4233H99.5278C99.201 15.0071 98.5842 15.3574 97.9265 15.3326C96.6293 15.3327 95.8099 14.2894 95.8099 12.6385ZM96.8494 12.6385C96.8494 13.744 97.3592 14.4092 98.2119 14.4092C99.0601 14.4092 99.5843 13.7344 99.5843 12.643C99.5843 11.5567 99.0546 10.8723 98.2119 10.8723C97.3647 10.8723 96.8494 11.542 96.8494 12.6385ZM104.735 12.6385C104.648 11.7042 105.086 10.8001 105.866 10.3053C106.647 9.81041 107.634 9.81041 108.414 10.3053C109.194 10.8001 109.632 11.7042 109.545 12.6385C109.634 13.5737 109.196 14.4796 108.415 14.9755C107.634 15.4714 106.646 15.4714 105.865 14.9755C105.084 14.4796 104.646 13.5737 104.735 12.6385ZM108.51 12.6385C108.51 11.5087 108.013 10.848 107.142 10.848C106.267 10.848 105.775 11.5087 105.775 12.6385C105.775 13.7773 106.267 14.4329 107.142 14.4329C108.013 14.4329 108.51 13.7728 108.51 12.6385ZM110.895 10.0347H111.864V10.8626H111.939C112.201 10.253 112.812 9.88012 113.461 9.93405C113.963 9.89543 114.456 10.0925 114.799 10.4696C115.143 10.8467 115.3 11.363 115.226 11.8726V15.2467H114.219V12.1309C114.219 11.2933 113.863 10.8768 113.119 10.8768C112.778 10.8606 112.447 10.9973 112.213 11.2512C111.979 11.5051 111.865 11.8507 111.902 12.1976V15.2468H110.895V10.0347ZM120.912 8.73701V10.0584H122.017V10.9248H120.912V13.6049C120.912 14.1509 121.132 14.3899 121.633 14.3899C121.761 14.3895 121.89 14.3816 122.017 14.3662V15.223C121.836 15.2561 121.653 15.2736 121.47 15.2756C120.35 15.2756 119.905 14.8732 119.905 13.8683V10.9248H119.095V10.0584H119.905V8.73701H120.912ZM123.392 8H124.389V10.8723H124.469C124.743 10.2573 125.365 9.88392 126.024 9.93858C126.523 9.91078 127.009 10.1122 127.349 10.4879C127.688 10.8637 127.846 11.3747 127.78 11.8817V15.2468H126.772V12.1354C126.772 11.3029 126.393 10.8813 125.682 10.8813C125.332 10.8519 124.987 10.982 124.739 11.2368C124.492 11.4916 124.367 11.845 124.398 12.2027V15.2467H123.392L123.392 8ZM133.647 13.8395C133.365 14.8226 132.435 15.4578 131.438 15.3474C130.758 15.3657 130.105 15.0776 129.651 14.5596C129.197 14.0415 128.989 13.3458 129.082 12.6571C128.992 11.9665 129.199 11.2697 129.65 10.7472C130.101 10.2248 130.752 9.92812 131.434 9.93406C132.852 9.93406 133.708 10.9249 133.708 12.5616V12.9205H130.108V12.9781C130.076 13.3649 130.205 13.7475 130.463 14.0317C130.722 14.316 131.086 14.4756 131.466 14.4713C131.958 14.5317 132.437 14.2821 132.679 13.8394L133.647 13.8395ZM130.108 12.1597H132.683C132.709 11.806 132.587 11.4577 132.348 11.2005C132.109 10.9434 131.775 10.8014 131.428 10.8095C131.076 10.805 130.738 10.9458 130.489 11.2001C130.241 11.4543 130.103 11.8003 130.108 12.1597ZM43.0341 22.651C43.0368 25.0793 44.4949 27.2707 46.7375 28.2167C46.3062 29.6139 45.6561 30.9344 44.8112 32.1292C43.6766 33.8218 42.487 35.4755 40.5988 35.5061C38.7642 35.5483 38.1476 34.4293 36.0433 34.4293C33.9193 34.4293 33.2622 35.4755 31.5026 35.5483C29.7044 35.6147 28.3302 33.7417 27.1543 32.0649C24.8041 28.6406 22.9741 22.4147 25.4275 18.1785C26.5796 16.1138 28.7338 14.8036 31.1018 14.7273C32.9016 14.6904 34.573 15.9395 35.6795 15.9395C36.765 15.9395 38.8302 14.4452 40.9605 14.6682C42.9853 14.7314 44.8617 15.7431 46.0236 17.398C44.1901 18.5222 43.0619 20.5047 43.0341 22.651ZM39.5688 12.4162C38.57 13.6551 37.0566 14.3687 35.4627 14.3523C35.3613 12.7989 35.8833 11.2691 36.9136 10.0997C37.957 8.91443 39.4099 8.16475 40.9827 8C41.1055 9.59945 40.5983 11.1837 39.5688 12.4162Z" fill="#F5F9FC"/>
</g>
</svg>
