<svg width="165" height="45" viewBox="0 0 165 45" fill="none" xmlns="http://www.w3.org/2000/svg">
<g id="Badge/Google Play Market/45px Blue">
<rect id="Background" width="165" height="45" rx="5" fill="#DAA86D"/>
<path id="Google Play" fill-rule="evenodd" clip-rule="evenodd" d="M59.3218 10.8667C59.3602 11.7131 59.0571 12.5387 58.4831 13.1506C57.8416 13.831 56.947 14.2006 56.0227 14.167C54.605 14.1556 53.3321 13.2776 52.7926 11.9389C52.253 10.6002 52.552 9.06159 53.5512 8.03459C54.2004 7.35777 55.0951 6.98571 56.0227 7.00681C56.4955 7.00521 56.9636 7.10236 57.3983 7.29231C57.803 7.45898 58.1632 7.72118 58.4495 8.05743L57.8568 8.66267C57.4043 8.11301 56.7249 7.81269 56.0227 7.85187C55.3169 7.84834 54.6401 8.13861 54.1484 8.65575C53.6567 9.17289 53.3926 9.87227 53.417 10.5926C53.402 11.6811 54.0298 12.672 55.0083 13.1041C55.9868 13.5362 57.1238 13.3248 57.8903 12.5682C58.2345 12.1874 58.4329 11.6929 58.4495 11.175H56.0227V10.3528H59.2771C59.3069 10.5224 59.3219 10.6944 59.3218 10.8667ZM64.4438 8.01175H61.4243V10.1815H64.1754V11.0037H61.4243V13.1735H64.4438V14.0185H60.5296V7.16669H64.4438V8.01175ZM68.112 14.0185H67.2509V8.01175H65.3721V7.16669H70.0356V8.01175H68.112V14.0185ZM73.3235 14.0185V7.16669H74.1846V14.0185H73.3235ZM78.0093 14.0185H77.1482V8.01175H75.2694V7.16669H79.877V8.01175H78.0093V14.0185ZM88.6113 13.1278C87.2502 14.5098 85.0516 14.5098 83.6905 13.1278C82.3712 11.7017 82.3712 9.47206 83.6905 8.04601C84.3414 7.37652 85.2271 7 86.1509 7C87.0747 7 87.9604 7.37652 88.6113 8.04601C89.9362 9.46977 89.9362 11.704 88.6113 13.1278ZM84.328 12.5568C85.336 13.5818 86.9658 13.5818 87.9738 12.5568C88.9637 11.4424 88.9637 9.74278 87.9738 8.62841C86.9658 7.60342 85.336 7.60342 84.328 8.62841C83.338 9.74278 83.338 11.4424 84.328 12.5568ZM90.8144 14.0185V7.16669H91.8656L95.1312 12.4997V7.16669H95.9923V14.0185H95.0976L91.6867 8.43428V14.0185H90.8144ZM82.4939 24.0108C83.7638 23.9859 84.9893 24.4885 85.8895 25.4034C86.7897 26.3184 87.2877 27.5673 87.2692 28.8641C87.2692 31.5416 85.1458 33.7133 82.5237 33.7175C79.9016 33.7216 77.7716 31.5568 77.7633 28.8793C77.7551 26.2018 79.8719 24.0234 82.4939 24.0108ZM82.4939 31.8104C83.2357 31.7929 83.9391 31.4701 84.4445 30.9153C84.9498 30.3606 85.2143 29.6209 85.1779 28.8641C85.175 27.6544 84.4483 26.5694 83.3452 26.1281C82.2421 25.6868 80.9869 25.9788 80.18 26.8646C79.3731 27.7504 79.1784 29.0498 79.6891 30.1414C80.1998 31.233 81.3121 31.8948 82.4939 31.8104ZM72.0821 24.0108H72.0709C73.3409 23.9859 74.5663 24.4885 75.4665 25.4034C76.3668 26.3184 76.8647 27.5673 76.8463 28.8641C76.8463 31.5431 74.7206 33.7154 72.097 33.7175C69.4735 33.7196 67.3445 31.5507 67.3404 28.8717C67.3362 26.1928 69.4586 24.0171 72.0821 24.0108ZM72.0821 31.8104H72.0709C72.8127 31.7929 73.5161 31.4701 74.0215 30.9153C74.5269 30.3606 74.7914 29.6209 74.755 28.8641C74.7518 27.6534 74.0235 26.568 72.919 26.1276C71.8146 25.6873 70.5587 25.9817 69.753 26.8699C68.9472 27.7581 68.7556 29.0592 69.2699 30.1501C69.7842 31.241 70.8997 31.8996 72.0821 31.8104ZM59.6797 25.5068L66.468 25.4497C66.546 25.8751 66.5835 26.3073 66.5799 26.7401C66.6325 28.5167 66.0069 30.2447 64.8353 31.5592C63.4963 32.9909 61.6164 33.7612 59.6797 33.6718C56.9721 33.7794 54.4239 32.3658 53.0388 29.9878C51.6537 27.6098 51.6537 24.6485 53.0388 22.2705C54.4239 19.8924 56.9721 18.4788 59.6797 18.5864C61.5817 18.5696 63.4093 19.3399 64.7458 20.7219L63.3255 22.1722C62.3456 21.2061 61.0304 20.6764 59.6685 20.6991C56.7038 20.6991 54.3005 23.1532 54.3005 26.1805C54.3005 29.2078 56.7038 31.662 59.6685 31.662C61.0626 31.7187 62.4152 31.1712 63.3926 30.1546C64.0411 29.444 64.4352 28.5305 64.5109 27.5623H59.6797V25.5068ZM110.352 27.1055L110.587 27.6194L104.223 30.303C104.622 31.2305 105.536 31.8148 106.527 31.7762C107.484 31.7786 108.372 31.2668 108.864 30.4286L110.486 31.5706C109.603 32.9198 108.116 33.7263 106.527 33.7175C105.264 33.7364 104.048 33.23 103.158 32.3147C102.268 31.3994 101.78 30.1538 101.808 28.8641C101.73 27.604 102.167 26.3674 103.015 25.448C103.862 24.5285 105.045 24.0083 106.281 24.0108C108.135 24.0805 109.755 25.3117 110.352 27.1055ZM103.865 28.7271L108.115 26.9228C107.781 26.2498 107.086 25.8454 106.348 25.895C105.649 25.9272 104.991 26.2456 104.524 26.7784C104.057 27.3112 103.82 28.0136 103.865 28.7271ZM98.6987 33.432V19.1574H100.79V33.432H98.6987ZM95.2766 25.0956V24.2963H97.2001V32.941C97.2001 36.5268 95.1759 37.9999 92.7268 37.9999C90.8806 38.0112 89.2126 36.8771 88.5106 35.1336L90.3335 34.357C90.7145 35.3746 91.6602 36.0559 92.7268 36.0814C94.2924 36.0814 95.2654 35.0879 95.2654 33.2265V32.5299H95.1983C94.5698 33.2702 93.6525 33.6883 92.6932 33.6718C90.1547 33.5461 88.1598 31.4079 88.1598 28.8128C88.1598 26.2176 90.1547 24.0794 92.6932 23.9537C93.6495 23.9524 94.5608 24.3678 95.1983 25.0956H95.2766ZM92.8833 31.8104H92.8721C93.599 31.7819 94.2827 31.4509 94.7643 30.8943C95.246 30.3378 95.4836 29.6042 95.422 28.8641C95.4772 28.1275 95.2388 27.3993 94.7608 26.8446C94.2829 26.2899 93.6059 25.9557 92.8833 25.9179C91.388 26.0524 90.2411 27.3313 90.2411 28.8641C90.2411 30.397 91.388 31.6759 92.8833 31.8104ZM115.15 19.1574H120.16C121.784 19.0382 123.338 19.8557 124.186 21.2758C125.034 22.6959 125.034 24.4806 124.186 25.9007C123.338 27.3208 121.784 28.1383 120.16 28.0191H117.241V33.432H115.15V19.1574ZM120.149 26.0092L120.193 26.0435C121.518 26.0435 122.592 24.9468 122.592 23.5939C122.592 22.2411 121.518 21.1444 120.193 21.1444H117.23V26.0092H120.149ZM133.043 23.9537L133.099 23.9879C135.481 23.9879 137.337 25.4382 137.337 27.9391V33.432H135.324V32.2901H135.257C134.675 33.2136 133.646 33.7391 132.573 33.6604C131.703 33.7261 130.843 33.4295 130.19 32.838C129.537 32.2465 129.146 31.4104 129.106 30.52C129.106 28.453 131.131 27.3111 133.133 27.3111C133.893 27.3078 134.642 27.4961 135.313 27.8592V27.7108C135.26 27.1621 134.993 26.6584 134.572 26.3127C134.152 25.9669 133.613 25.8082 133.077 25.8722C132.295 25.8069 131.549 26.219 131.175 26.9228L129.319 26.1348C130.024 24.7155 131.487 23.8587 133.043 23.9537ZM132.786 31.7762L132.842 31.8104C134.102 31.7791 135.146 30.8048 135.291 29.5265C134.711 29.1958 134.054 29.0301 133.39 29.0469C132.338 29.0469 131.153 29.4237 131.153 30.5657C131.153 31.4222 132.104 31.7762 132.786 31.7762ZM144.674 24.2963H147L141.274 37.7601H139.093L141.218 32.9524L137.494 24.2963H139.731L142.213 30.4857H142.281L144.674 24.2963ZM125.874 33.432V19.1574H127.966V33.432H125.874ZM43.3868 21.556C43.6673 21.7182 43.8349 22.0085 43.8349 22.3325C43.8349 22.6564 43.6673 22.9467 43.3868 23.1085L38.2959 26.0469L34.7222 22.5923L38.6325 18.8125L43.3868 21.556ZM37.8254 18.3463L34.0779 21.9693L21.1271 9.45L32.5935 15.3259L37.8254 18.3463ZM21.3175 35.55L34.0779 23.2153L37.489 26.513L32.6131 29.3278L21.3175 35.55ZM20.3621 9.95677L33.4334 22.5921L20.35 35.2395L20.3621 9.95677Z" fill="#F5F9FC"/>
</g>
</svg>
